<?xml version="1.0" encoding="utf-8"?>
<!-- Generator: Adobe Illustrator 19.0.0, SVG Export Plug-In . SVG Version: 6.00 Build 0)  -->
<svg version="1.1" xmlns="http://www.w3.org/2000/svg" xmlns:xlink="http://www.w3.org/1999/xlink" x="0px" y="0px"
	 viewBox="0 0 600 600" enable-background="new 0 0 600 600" xml:space="preserve">
<g id="FLOOR">
	<path id="XMLID_58_" fill="#E1ECFF" d="M373.5,373.6h-10.7c2.1-2.9,3.4-6.9,3.4-11.2c0-9.1-5.6-16.4-12.6-16.4H100.7
		c-7,0-12.6,7.4-12.6,16.4c0,9.1,5.6,16.4,12.6,16.4h7.2c1.1,0,2.1,0.3,2.9,0.8c-1.8,2.8-2.9,6.5-2.9,10.4c0,9.1,5.6,16.4,12.6,16.4
		h7.2c4,0,7.2,4.3,7.2,9.6v0.1c0,9.1,5.6,16.4,12.6,16.4h179.7c7,0,12.6-7.4,12.6-16.4v0c0,0,0-0.1,0-0.1c0-5.2,3.2-9.6,7.2-9.6
		h26.5c7,0,12.6-7.4,12.6-16.4C386.1,380.9,380.5,373.6,373.5,373.6z"/>
</g>
<g id="CARDBOX_1">
	<g id="XMLID_192_">
		<path id="XMLID_197_" fill="#FC7EC1" d="M355.3,284.3l-134.7-51.2l-1.9,93.8l119.2,55.8c3.1,1.5,6.7-0.6,7.1-4L355.3,284.3z"/>
		<path id="XMLID_195_" fill="#F969BB" d="M142.9,359.5l75.8-32.6l1.9-93.8l-90.3,38.4l5.4,83.6C136,358.7,139.6,360.9,142.9,359.5z
			"/>
		<path id="XMLID_194_" fill="#FF97C9" d="M220.6,233.1h-27.5c-5.2,0-10.3,1.1-15,3.2l-75.1,33.2c-2,0.9-1.3,3.9,0.9,3.7l26.3-1.7
			L220.6,233.1z"/>
		<path id="XMLID_193_" fill="#FF97C9" d="M220.6,233.1l134.7,51.2h14.5c1.7,0,2.1-2.4,0.5-3L244,234.6c-2.6-1-5.4-1.5-8.2-1.5
			H220.6z"/>
	</g>
</g>
<g id="TAIL">
	<g id="XMLID_57_">
		<g id="XMLID_23_">
			<g id="XMLID_24_">
				<path id="XMLID_175_" fill="#FF8D76" d="M253,349l-9.9,28.3c0,0-18.6-18.9-34.3-51.4c-4-8.2-5.5-16.9-5.6-25.2
					c-0.3-20.9,8.9-39.2,13-39.6c4.3-0.4-1.3,16.7,0.2,33.9c0.5,5.7,1.7,11.3,4.3,16.4C234.1,337.7,253,349,253,349z"/>
			</g>
		</g>
		<path id="XMLID_169_" fill="#FFD3B3" d="M216.3,295c-3.1,1.9-8.4,4.7-13.2,5.6c-0.3-20.9,8.9-39.2,13-39.6
			C220.4,260.7,214.9,277.8,216.3,295z"/>
	</g>
</g>
<g id="BODY">
	<g id="XMLID_180_">
		<path id="XMLID_185_" fill="#FEA691" d="M318.2,357.5c-0.8,20.3-16.7,37.5-37.9,40.5c-3.5,0.5-7.2,0.8-11.2,0.8
			c-3.9,0-7.4-0.1-10.7-0.5c-19.9-2.1-35.6-17.1-38-35.9c-2.3-18.2-3.9-45.4,3.4-63.8c1.8-4.6,4.3-8.5,7.2-11.9
			c10-11.4,25-15.5,36.8-15.7c11.9-0.2,28.6,2.8,39.2,14.4c4.9,5.3,8.5,12.4,9.8,21.9C318.9,323,318.8,342.5,318.2,357.5z"/>
		<path id="XMLID_184_" fill="#FFD3B3" d="M267.6,379.7c19.2,0.3,33-7.8,34.3-28.4c1.3-20.6,4.3-53.9-32.8-54.7
			c-37.1-0.8-33.2,36.6-33.5,50.6S243.9,379.3,267.6,379.7z"/>
		<path id="XMLID_181_" fill="#FF8D76" d="M306.9,285.5c-10.2,5.2-24.1,8.5-39.4,8.5c-14,0-26.8-2.7-36.6-7.1
			c10-11.4,25-15.5,36.8-15.7C279.6,270.9,296.3,273.9,306.9,285.5z"/>
	</g>
</g>
<g id="CARDBOX_2">
	<g id="XMLID_166_">
		<g id="XMLID_164_">
			<path id="XMLID_25_" fill="#FF97C9" d="M130.3,271.5l5.4,83.4c0.3,4.7,3,8.9,7.2,11.1l116.6,61.7l1.8-100.6L130.3,271.5z"/>
			<path id="XMLID_30_" fill="#FC7EC1" d="M133.7,324.2l95.6,46.6c5,2.4,10.9,0.9,14.1-3.6l17.8-25.4v-14.7l-131-55.6L133.7,324.2z"
				/>
			<path id="XMLID_28_" fill="#FF97C9" d="M116.8,308.5l113.7,53.6c3.3,1.6,7.2,0.5,9.3-2.6l21.6-32.4l-131-55.6l-16.6,26.4
				C111.3,301.7,112.8,306.6,116.8,308.5z"/>
		</g>
		<g id="XMLID_165_">
			<path id="XMLID_26_" fill="#FC7EC1" d="M336.3,389.7l-76.8,38l1.8-100.6l94-42.8L345.2,377C344.6,382.5,341.2,387.2,336.3,389.7z
				"/>
			<path id="XMLID_31_" fill="#F969BB" d="M261.3,341.8l10.6,23c2.6,5.6,9.3,7.9,14.8,5.2l62.8-31.7l5.9-53.9l-94,42.8V341.8z"/>
			<path id="XMLID_27_" fill="#FF97C9" d="M279.6,359.5l-18.3-32.4l94-42.8l17.1,28.7c1.7,2.8,0.6,6.5-2.3,7.9L287,361.7
				C284.3,363,281.1,362,279.6,359.5z"/>
		</g>
	</g>
</g>
<g id="LEFT_ARM">
	<g id="XMLID_137_">
		<path id="XMLID_147_" fill="#FEA691" d="M377.1,229.5c-0.2,4-4.7,26.9-27.2,46.2c-21,18-49.4,31.7-49.4,31.7l-1.6-42.2
			c0,0,25.8-7.6,40.9-20.7s20.4-26,24.2-27.6c1.6-0.7,3-0.6,4-0.4c1.4,0.3,2.2,1.1,2.2,1.1s0.1,0,0.3-0.1c0.7-0.2,2.4-0.4,4,1.4
			c1.1,1.2,0.8,4.7,0.8,4.7s1.2,1.2,1.5,3.7C377.1,228,377.2,228.7,377.1,229.5z"/>
		
			<ellipse id="XMLID_146_" transform="matrix(0.86 0.5102 -0.5102 0.86 173.1365 -150.7019)" fill="#FFD3B3" cx="361.3" cy="240.2" rx="7.1" ry="8.8"/>
		<path id="XMLID_141_" fill="#FF8D76" d="M370.7,217.6c-0.2,0.9-0.6,2.4-1.5,4.6c-1.6,3.8-2.8,5.5-3.4,5.7
			c-1.5,0.6-1.7-1.5-0.2-4.4c1.1-2.3,2.1-5.6,2.5-6.9c1.4,0.3,2.2,1.1,2.2,1.1S370.5,217.6,370.7,217.6z"/>
		<path id="XMLID_140_" fill="#FF8D76" d="M377.1,227.4c-0.2,0.4-0.3,0.8-0.5,1.3c-1.7,3.8-3,5.4-3.6,5.6c-1.5,0.5-1.6-1.5-0.1-4.4
			c1.6-2.9,2.7-6.2,2.7-6.2S376.7,224.9,377.1,227.4z"/>
		<g id="XMLID_138_">
			<path id="XMLID_139_" fill="#FF8D76" d="M301.7,307c-0.5,0-1-0.3-1.2-0.8c-0.3-0.7,0-1.5,0.7-1.8c0.2-0.1,24.1-10.5,44.4-27.2
				c25.7-21.1,28.9-42.3,28.9-42.5c0.1-0.7,0.8-1.3,1.5-1.2c0.7,0.1,1.3,0.8,1.2,1.5c-0.1,0.9-3.3,22.3-29.9,44.2
				c-20.6,16.9-44.7,27.5-45,27.6C302.1,306.9,301.9,307,301.7,307z"/>
		</g>
	</g>
</g>
<g id="HEAD">
	<g id="XMLID_171_">
		<path id="XMLID_148_" fill="#FEA691" d="M278.7,185.1c0,0,10-22.7,15.9-23.8c5.8-1.1,8.8,13.2,11.2,25.1
			c2.5,11.9,3.1,21.8,3.1,21.8L278.7,185.1z"/>
		<path id="XMLID_154_" fill="#FFD3B3" d="M283.9,185c0,0,6.6-14.8,10.4-15.5s5.7,8.7,7.3,16.4c1.6,7.8,2.1,14.2,2.1,14.2L283.9,185
			z"/>
		<path id="XMLID_158_" fill="#FEA691" d="M257.5,185.1c0,0-10-22.7-15.9-23.8c-5.8-1.1-8.8,13.2-11.2,25.1s-3.1,21.8-3.1,21.8
			L257.5,185.1z"/>
		<path id="XMLID_157_" fill="#FFD3B3" d="M252.3,185c0,0-6.6-14.8-10.4-15.5s-5.7,8.7-7.3,16.4c-1.6,7.8-2.1,14.2-2.1,14.2
			L252.3,185z"/>
		<path id="XMLID_156_" fill="#FEA691" d="M311.8,247.5l-26.2-0.7l-37.9-1l-24.3-0.6c0,0-1.1-34.1,8.8-50.5
			c5.2-8.7,14.9-14.8,25.6-17.3c5.4-1.3,11.1-1.7,16.6-1c7.2,0.9,14.1,3.6,19.5,8.4c17.5,15.5,15.7,29.9,16.8,41.8
			C311.8,238.5,311.8,247.5,311.8,247.5z"/>
		<path id="XMLID_152_" fill="#FFD3B3" d="M285.6,246.8l-37.9-1c2-5.1,5.5-15.7,7.5-30.1c2-14,2.4-29.6,2.5-38.3
			c5.4-1.3,11.1-1.7,16.6-1c0.1,8.1,0.7,22.2,3.1,38C280.1,232,283.8,242.4,285.6,246.8z"/>
		<path id="XMLID_82_" fill="#FFD3B3" d="M315.4,257.4c0,16.5-21.4,29.9-47.8,29.9c-26.4,0-47.8-13.4-47.8-29.9
			c0-20.5,21.4-29.9,47.8-29.9C294,227.5,315.4,237.9,315.4,257.4z"/>
		<g id="XMLID_126_">
			<g id="XMLID_100_">
				<path id="XMLID_122_" fill="#413F4C" d="M255.6,239.1c2.6-3.7,21.9-5,24.6-0.9c2.7,4-4.4,12.7-11.3,12.7
					C262,250.9,252.1,244,255.6,239.1"/>
			</g>
		</g>
		<g id="XMLID_155_">
			<path id="XMLID_160_" fill="#FF8D76" d="M234.2,193.7c-0.3,0-0.6-0.1-0.8-0.3c-0.6-0.4-0.7-1.3-0.3-1.9c0.1-0.2,3.4-4.5,9.1-8.2
				c6.8-4.5,10.3-5.4,10.4-5.4c0.7-0.2,1.5,0.2,1.6,1c0.2,0.7-0.2,1.5-1,1.6c0,0-3.3,0.9-9.6,5.1c-5.3,3.5-8.5,7.6-8.5,7.6
				C235,193.5,234.6,193.7,234.2,193.7z"/>
		</g>
		<g id="XMLID_161_">
			<path id="XMLID_162_" fill="#FF8D76" d="M300.2,193.7c0.3,0,0.6-0.1,0.8-0.3c0.6-0.4,0.7-1.3,0.3-1.9c-0.1-0.2-3.4-4.5-9.1-8.2
				c-6.8-4.5-10.3-5.4-10.4-5.4c-0.7-0.2-1.5,0.2-1.6,1c-0.2,0.7,0.2,1.5,1,1.6c0,0,3.3,0.9,9.6,5.1c5.3,3.5,8.5,7.6,8.5,7.6
				C299.4,193.5,299.8,193.7,300.2,193.7z"/>
		</g>
	</g>
</g>
<g id="TONGUE">
	<g id="XMLID_108_">
		<g id="XMLID_111_">
			<path id="XMLID_112_" fill="#FF6EA9" d="M258.1,265.5c0,0,7.7-0.8,11.4-6.8c4.4,6.1,10.8,4.7,10.8,4.7s1.3,12-9.6,12.9
				C259.2,277.3,258.1,265.5,258.1,265.5"/>
		</g>
		<g id="XMLID_109_">
			<path id="XMLID_110_" fill="#EA4E95" d="M269.4,272.4c-0.8-0.1-1.5-0.8-1.4-1.6c0.1-4-0.2-11.1-0.2-11.2c0-0.9,0.6-1.6,1.5-1.6
				c0.8,0,1.6,0.6,1.6,1.5c0,0.3,0.3,7.4,0.2,11.5C271,271.7,270.3,272.4,269.4,272.4C269.5,272.4,269.4,272.4,269.4,272.4z"/>
		</g>
	</g>
</g>
<g id="MOUTH">
	<g id="XMLID_86_">
		<path id="XMLID_88_" fill="#413F4C" d="M256.9,267.1c-4.7,0-8.3-1.7-8.4-1.8c-0.9-0.4-1.2-1.5-0.8-2.4c0.4-0.9,1.5-1.2,2.4-0.8
			l0,0c0.4,0.2,10.8,5.2,18-4.4c0.3-0.5,0.9-0.7,1.4-0.7c0.6,0,1.1,0.3,1.4,0.8c4.8,6.9,14.5,3.4,14.9,3.3c0.9-0.3,1.9,0.1,2.3,1
			c0.3,0.9-0.1,1.9-1,2.3c-4,1.5-12.3,2.6-17.6-2.8C265.4,265.9,260.8,267.1,256.9,267.1z"/>
	</g>
</g>
<g id="EYE_2A">
	<ellipse id="XMLID_99_" fill="#413F4C" cx="288.6" cy="220.4" rx="4.4" ry="5.2"/>
</g>
<g id="EYE_1A">
	<ellipse id="XMLID_84_" fill="#413F4C" cx="244.2" cy="220.4" rx="4.4" ry="5.2"/>
</g>
<g id="EYEBROW_2A">
	<g id="XMLID_95_">
		<path id="XMLID_97_" fill="#FFD3B3" d="M281.2,204.4c0.8-2.7,5.6-2.4,9.1-1.2c3.5,1.2,6.3,3.5,5.5,4.9
			C295,209.6,279.6,209.6,281.2,204.4"/>
	</g>
</g>
<g id="EYEBROW_1A">
	<g id="XMLID_151_">
		<path id="XMLID_153_" fill="#FFD3B3" d="M249.9,204.3c-0.9-2.7-5.7-2.3-9.2-1c-3.5,1.3-6.2,3.6-5.3,5
			C236.3,209.7,251.7,209.4,249.9,204.3"/>
	</g>
</g>
<g id="FOUR_2">
	<g id="XMLID_73_">
		<g id="XMLID_87_">
			<path id="XMLID_90_" fill="#BBCBFF" d="M506.7,400.9l-51.1,17.7l-23.6,8.2l-5.7,2l-41.6,14.4c-5.9,2.1-12.5,0.6-17.1-3.7
				l-5.3-5.1c-3-2.9-2.8-7.6-0.1-10.3c0.7-0.7,1.6-1.3,2.6-1.6l121.8-42.4c3.6-1.2,7.5-0.5,10.3,2l11.3,9.8c0.4,0.3,0.7,0.7,1,1.1
				C511.2,395.8,510.1,399.7,506.7,400.9z"/>
			<path id="XMLID_89_" fill="#BBCBFF" d="M476.7,457.9l-57.2,18.3c-5.3,1.7-11.1,0.5-15.3-3.2l-5.3-4.7c-2.9-2.5-3.1-6.6-1.2-9.4
				c0.9-1.3,2.2-2.3,3.8-2.8l37.9-11.4c0.3-0.1,0.5-0.2,0.7-0.4c1.2-0.9,1.3-2.6,0.1-3.7l-13.9-11.9l-4.5-3.8l-0.8-0.7
				c-4.4-3.7-2.8-10.9,2.8-12.3l19.5-5.1l12.3,11.8l24.7,23.6c0.8,0.7,1.4,1.6,1.8,2.5C484.7,449.6,482.4,456.1,476.7,457.9z"/>
		</g>
		<path id="XMLID_80_" fill="#99ADF9" d="M440.2,444.3c1.2-0.9,1.3-2.6,0.1-3.7l-13.9-11.9l-41.6,14.4c-5.9,2.1-12.5,0.6-17.1-3.7
			l-5.3-5.1c-3-2.9-2.8-7.6-0.1-10.3c2.6,3.8,11.6,12.6,17.5,12.8c5.7,0.2,47.6-14.7,47.6-14.7s18.3,15.6,19,16.4
			C448.3,440.5,443.4,443.5,440.2,444.3z"/>
		<path id="XMLID_78_" fill="#99ADF9" d="M506.7,400.9l-51.1,17.7l-5.4-5c0,0,50.2-18.2,56.7-20c0.9-0.2,1.7-0.4,2.5-0.6
			C511.2,395.8,510.1,399.7,506.7,400.9z"/>
		<path id="XMLID_76_" fill="#99ADF9" d="M476.7,457.9l-57.2,18.3c-5.3,1.7-11.1,0.5-15.3-3.2l-5.3-4.7c-2.9-2.5-3.1-6.6-1.2-9.4
			c4.5,3.1,13.7,9.5,16,10.1c3,0.7,15.3-3.3,28.7-8.1c13.4-4.8,35.4-13.7,39.8-16.1C484.7,449.6,482.4,456.1,476.7,457.9z"/>
	</g>
</g>
<g id="ZERO">
	<g id="XMLID_36_">
		<path id="XMLID_183_" fill="#BBCBFF" d="M484.6,316c-1.9-5.9-6.9-11.2-16.4-15.8c-29.6-14.4-61.7,15-80.8,35.6
			c-9.6,10.4-15.7,19.8-17.1,28c-1.4,8.1,1.8,14.9,10.9,19.9c35,19.4,65.5-6,84.4-26.6C478.2,343,488.6,328.4,484.6,316z M443,342.5
			c-17.5,15.7-32.9,29.3-45.2,22.2c-1-0.6-1.7-1.3-2.1-2.2v0c-2-4.6,4.7-13.2,20.4-26.3c18.7-15.7,29.6-24.1,39.2-20.5
			c2.4,0.9,3.9,2,4.5,3.4C461.9,323.4,456.2,330.6,443,342.5z"/>
		<path id="XMLID_187_" fill="#99ADF9" d="M465.4,357c-18.9,20.7-49.4,46.1-84.4,26.6c-9.1-5-12.3-11.8-10.9-19.9
			c2.8,5.5,8.6,12.7,20.6,16c20.7,5.7,41.9,0.3,63.8-20.9c19.2-18.7,25.7-32.8,30-42.8C488.6,328.4,478.2,343,465.4,357z"/>
		<path id="XMLID_182_" fill="#99ADF9" d="M459.8,319c-0.7-1.4-2.2-2.5-4.5-3.4c-9.6-3.6-20.5,4.8-39.2,20.5
			c-15.7,13.2-22.4,21.7-20.4,26.3c-1-0.8-2.1-2.3-2.5-5.5c-0.7-6,3-11.8,13.8-21.8c10.8-10,26.3-22.7,35.8-24.7
			c9.4-1.9,16,3,16.9,6.9C459.8,317.9,459.8,318.4,459.8,319z"/>
	</g>
</g>
<g id="FOUR_1">
	<g id="XMLID_29_">
		<g id="XMLID_35_">
			<path id="XMLID_56_" fill="#BBCBFF" d="M401.4,285.2l-9,4.2c-5.2,2.4-11.5,0.1-13.8-5.2L331,175.6c-1.4-3.3-0.7-7,1.6-9.5
				c0.8-0.9,1.8-1.6,2.9-2.1l11.4-5.1c4.5-2,9.7,0,11.7,4.5l47.9,108.3c0.5,1,0.7,2.1,0.8,3.2C407.7,279.1,405.5,283.3,401.4,285.2z
				"/>
			<path id="XMLID_37_" fill="#BBCBFF" d="M430.3,203.1l-45.1,20.3l-9.6,4.3l-15.8-22.2l36.4-16.5c0.5-0.2,0.9-0.5,1.3-0.9
				c1.6-1.5,1.9-4.1,0.4-6l-18.3-23.1c-2.9-3.7-2.5-8.7,0.3-12c0.9-1.1,2.1-1.9,3.5-2.5l7.4-2.9c3.8-1.5,8.2-0.4,10.8,2.9l32.9,41.5
				c0.4,0.5,0.7,1,1,1.6C438.5,193.2,436.3,200.3,430.3,203.1z"/>
		</g>
		<path id="XMLID_34_" fill="#99ADF9" d="M430.3,203.1l-45.1,20.3l-3.8-8c0,0,37.7-15.3,47.4-20.9c3.6-2.1,5.6-4.6,6.7-6.9
			C438.5,193.2,436.3,200.3,430.3,203.1z"/>
		<path id="XMLID_33_" fill="#99ADF9" d="M401.4,285.2l-9,4.2c-5.2,2.4-11.5,0.1-13.8-5.2L331,175.6c-1.4-3.3-0.7-7,1.6-9.5
			c9.6,21.2,52,114.8,52.5,116.1c0.6,1.5,0.8,2.5,5.1,0.6c4-1.8,13.7-5.4,17.2-7.9C407.7,279.1,405.5,283.3,401.4,285.2z"/>
		<path id="XMLID_32_" fill="#99ADF9" d="M397.4,188.2c1.6-1.5,1.9-4.1,0.4-6l-18.3-23.1c-2.9-3.7-2.5-8.7,0.3-12
			c3.9,5.1,23.5,30.5,25.3,33.8C406.5,183.3,401.2,186.4,397.4,188.2z"/>
	</g>
</g>
<g id="ORNAMENT_1">
	<g id="XMLID_2_">
		<circle id="XMLID_1_" fill="#BBCBFF" cx="210.3" cy="179.7" r="5.3"/>
		<circle id="XMLID_11_" fill="#BBCBFF" cx="210.3" cy="159" r="5.3"/>
		<circle id="XMLID_20_" fill="#BBCBFF" cx="210.3" cy="138.3" r="5.3"/>
	</g>
</g>
</svg>
